<svg width="24" height="24" viewBox="0 0 24 24" fill="none" xmlns="http://www.w3.org/2000/svg">
<path d="M18.6666 3.66663H5.33329C4.41663 3.66663 3.66663 4.41663 3.66663 5.33329V15.3333C3.66663 16.25 4.41663 17 5.33329 17H8.66663V19.5C8.66663 20 8.99996 20.3333 9.49996 20.3333H9.91663C10.0833 20.3333 10.3333 20.25 10.5 20.0833L13.5833 17H18.6666C19.5833 17 20.3333 16.25 20.3333 15.3333V5.33329C20.3333 4.41663 19.5833 3.66663 18.6666 3.66663ZM11.1666 12.8333H7.83329V9.33329L8.91663 6.99996H10.5833L9.41663 9.49996H11.1666V12.8333ZM16.1666 12.8333H12.8333V9.33329L13.9166 6.99996H15.5833L14.4166 9.49996H16.1666V12.8333Z" fill="#B2B2B2"/>
</svg>
