<svg width="24" height="24" viewBox="0 0 24 24" fill="none" xmlns="http://www.w3.org/2000/svg">
<path d="M14.5 18.25H3.25V14.5C3.91304 14.5 4.54893 14.2366 5.01777 13.7678C5.48661 13.2989 5.75 12.663 5.75 12C5.75 11.337 5.48661 10.7011 5.01777 10.2322C4.54893 9.76339 3.91304 9.5 3.25 9.5V5.75H14.5V8.875H15.75V5.75H20.75V9.5C20.087 9.5 19.4511 9.76339 18.9822 10.2322C18.5134 10.7011 18.25 11.337 18.25 12C18.25 12.663 18.5134 13.2989 18.9822 13.7678C19.4511 14.2366 20.087 14.5 20.75 14.5V18.25H15.75V15.125H14.5V18.25ZM14.5 10.125V13.875H15.75V10.125H14.5Z" fill="#BBBBBB"/>
</svg>
