<svg width="24" height="24" viewBox="0 0 24 24" fill="none" xmlns="http://www.w3.org/2000/svg">
<path d="M6.99996 17L5.08329 18.9166C4.81941 19.1805 4.51718 19.2397 4.17663 19.0941C3.83607 18.9486 3.66607 18.688 3.66663 18.3125V5.33329C3.66663 4.87496 3.82996 4.48274 4.15663 4.15663C4.48329 3.83051 4.87552 3.66718 5.33329 3.66663H18.6666C19.125 3.66663 19.5175 3.82996 19.8441 4.15663C20.1708 4.48329 20.3338 4.87551 20.3333 5.33329V15.3333C20.3333 15.7916 20.1702 16.1841 19.8441 16.5108C19.518 16.8375 19.1255 17.0005 18.6666 17H6.99996ZM12 14.5C12.2361 14.5 12.4341 14.42 12.5941 14.26C12.7541 14.1 12.8338 13.9022 12.8333 13.6666C12.8327 13.4311 12.7527 13.2333 12.5933 13.0733C12.4338 12.9133 12.2361 12.8333 12 12.8333C11.7638 12.8333 11.5661 12.9133 11.4066 13.0733C11.2472 13.2333 11.1672 13.4311 11.1666 13.6666C11.1661 13.9022 11.2461 14.1002 11.4066 14.2608C11.5672 14.4213 11.765 14.5011 12 14.5ZM12 11.1666C12.2361 11.1666 12.4341 11.0866 12.5941 10.9266C12.7541 10.7666 12.8338 10.5688 12.8333 10.3333V6.99996C12.8333 6.76385 12.7533 6.56607 12.5933 6.40663C12.4333 6.24718 12.2355 6.16718 12 6.16663C11.7644 6.16607 11.5666 6.24607 11.4066 6.40663C11.2466 6.56718 11.1666 6.76496 11.1666 6.99996V10.3333C11.1666 10.5694 11.2466 10.7675 11.4066 10.9275C11.5666 11.0875 11.7644 11.1672 12 11.1666Z" fill="#B2B2B2"/>
</svg>
