<svg width="24" height="24" viewBox="0 0 24 24" fill="none" xmlns="http://www.w3.org/2000/svg">
<path d="M16.375 12C16.8723 12 17.3492 12.1975 17.7008 12.5492C18.0525 12.9008 18.25 13.3777 18.25 13.875V14.5C18.25 16.9637 15.925 19.5 12 19.5C8.075 19.5 5.75 16.9637 5.75 14.5V13.875C5.75 13.3777 5.94754 12.9008 6.29917 12.5492C6.65081 12.1975 7.12772 12 7.625 12H16.375ZM12 3.875C12.9117 3.875 13.786 4.23716 14.4307 4.88182C15.0753 5.52648 15.4375 6.40082 15.4375 7.3125C15.4375 8.22418 15.0753 9.09852 14.4307 9.74318C13.786 10.3878 12.9117 10.75 12 10.75C11.0883 10.75 10.214 10.3878 9.56932 9.74318C8.92466 9.09852 8.5625 8.22418 8.5625 7.3125C8.5625 6.40082 8.92466 5.52648 9.56932 4.88182C10.214 4.23716 11.0883 3.875 12 3.875Z" fill="#B2B2B2"/>
</svg>
