<svg width="8" height="13" viewBox="0 0 8 13" fill="none" xmlns="http://www.w3.org/2000/svg">
<path d="M5.33609 6.5059L5.23002 6.61197L0.393198 11.4488C0.243031 11.6047 0.159958 11.8133 0.161839 12.0299C0.163724 12.2468 0.250734 12.4543 0.404129 12.6077C0.557523 12.7611 0.765028 12.8481 0.981953 12.85C1.19846 12.8518 1.40705 12.7688 1.56299 12.6186L7.0908 7.09083C7.09081 7.09082 7.09081 7.09081 7.09082 7.09081C7.24591 6.93566 7.33303 6.72527 7.33303 6.5059C7.33303 6.28653 7.24591 6.07614 7.09082 5.92099L5.33609 6.5059ZM5.33609 6.5059L5.23002 6.39983L0.392239 1.56205C0.392234 1.56204 0.392229 1.56204 0.392223 1.56203C0.237133 1.40689 0.150007 1.1965 0.150007 0.977125C0.150007 0.757761 0.237126 0.547377 0.392207 0.392232C0.547355 0.237131 0.757753 0.15 0.977132 0.15C1.1965 0.15 1.40689 0.237125 1.56204 0.392216C1.56205 0.392221 1.56205 0.392227 1.56206 0.392232L7.0908 5.92098L5.33609 6.5059Z" fill="black" stroke="#F3F3F4" stroke-width="0.3"/>
</svg>
