<svg width="8" height="13" viewBox="0 0 8 13" fill="none" xmlns="http://www.w3.org/2000/svg">
<path d="M2.66391 6.4941L2.76998 6.38803L7.6068 1.55121C7.75697 1.39527 7.84004 1.18666 7.83816 0.970143C7.83628 0.753219 7.74927 0.545713 7.59587 0.392318C7.44248 0.238924 7.23497 0.151915 7.01805 0.15003C6.80155 0.148149 6.59295 0.231212 6.43701 0.381363L0.9092 5.90917C0.909194 5.90918 0.909189 5.90919 0.909184 5.90919C0.754093 6.06434 0.666968 6.27473 0.666968 6.4941C0.666968 6.71347 0.754093 6.92386 0.909184 7.07901L2.66391 6.4941ZM2.66391 6.4941L2.76998 6.60017L7.60776 11.438C7.60777 11.438 7.60777 11.438 7.60778 11.438C7.76287 11.5931 7.84999 11.8035 7.84999 12.0229C7.84999 12.2422 7.76287 12.4526 7.60779 12.6078C7.45265 12.7629 7.24225 12.85 7.02287 12.85C6.8035 12.85 6.59311 12.7629 6.43796 12.6078C6.43796 12.6078 6.43795 12.6078 6.43794 12.6078L0.9092 7.07902L2.66391 6.4941Z" fill="black" stroke="#F3F3F4" stroke-width="0.3"/>
</svg>
